<?xml version="1.0" encoding="UTF-8"?>
<svg width="214px" height="85px" viewBox="0 0 214 85" version="1.1" xmlns="http://www.w3.org/2000/svg" xmlns:xlink="http://www.w3.org/1999/xlink">
    <!-- Generator: Sketch 64 (93537) - https://sketch.com -->
    <title>Group 50 Copy</title>
    <desc>Created with Sketch.</desc>
    <defs>
        <polygon id="path-1" points="0.000164705882 0.617592593 13.4368706 0.617592593 13.4368706 22.3341074 0.000164705882 22.3341074"></polygon>
    </defs>
    <g id="Symbols" stroke="none" stroke-width="1" fill="none" fill-rule="evenodd">
        <g id="Menu" transform="translate(-85.000000, -25.000000)">
            <g id="Group-50-Copy" transform="translate(85.000000, 24.200000)">
                <g id="Group-3" transform="translate(0.000000, 0.800000)">
                    <mask id="mask-2" fill="white">
                        <use xlink:href="#path-1"></use>
                    </mask>
                    <g id="Clip-2"></g>
                    <path d="M6.71851765,18.5697741 C7.55851765,18.5697741 8.18769412,18.3431815 8.60851765,17.8891444 C9.02851765,17.4359593 9.23851765,16.7945148 9.23851765,15.9639593 L9.23851765,6.98714444 C9.23851765,6.13784815 9.03263529,5.49129259 8.62251765,5.04747778 C8.21075294,4.60366296 7.57663529,4.38132963 6.71851765,4.38132963 C5.85957647,4.38132963 5.22545882,4.60366296 4.81451765,5.04747778 C4.40357647,5.49129259 4.19851765,6.13784815 4.19851765,6.98714444 L4.19851765,15.9639593 C4.19851765,16.7945148 4.40851765,17.4359593 4.82934118,17.8891444 C5.24934118,18.3431815 5.87851765,18.5697741 6.71851765,18.5697741 M6.71851765,22.3341074 C5.3564,22.3341074 4.17134118,22.0683296 3.16334118,21.5376259 C2.15534118,21.0069222 1.37628235,20.2641074 0.826164706,19.3083296 C0.275223529,18.3525519 0.000164705882,17.2383296 0.000164705882,15.9639593 L0.000164705882,6.98714444 C0.000164705882,5.71362593 0.275223529,4.59855185 0.826164706,3.64277407 C1.37628235,2.6869963 2.15534118,1.94418148 3.16334118,1.41347778 C4.17134118,0.882774074 5.3564,0.616996296 6.71851765,0.616996296 C8.09957647,0.616996296 9.28875294,0.882774074 10.2876941,1.41347778 C11.2858118,1.94418148 12.0599294,2.6869963 12.6108706,3.64277407 C13.1609882,4.59855185 13.4368706,5.71362593 13.4368706,6.98714444 L13.4368706,15.9639593 C13.4368706,17.2383296 13.1609882,18.3525519 12.6108706,19.3083296 C12.0599294,20.2641074 11.2858118,21.0069222 10.2876941,21.5376259 C9.28875294,22.0683296 8.09957647,22.3341074 6.71851765,22.3341074" id="Fill-1" fill="#FF5C47" mask="url(#mask-2)"></path>
                </g>
                <path d="M24.1668223,11.2641332 L26.9166472,11.2641332 C27.8057436,11.2641332 28.5142424,11.0102442 29.0421434,10.5016201 C29.5692272,9.99384219 29.8339949,9.31765133 29.8339949,8.47389377 C29.8339949,7.63013621 29.5692272,6.95394535 29.0421434,6.44616749 C28.5142424,5.93838962 27.8057436,5.68365439 26.9166472,5.68365439 L24.1668223,5.68365439 L24.1668223,11.2641332 Z M20,22.8 L20,1.8 L26.9166472,1.8 C28.3426337,1.8 29.5880224,2.07843153 30.6528134,2.6344483 C31.7176045,3.19046506 32.5421434,3.9673652 33.1256129,4.96430241 C33.7090824,5.96123962 34,7.13166761 34,8.47389377 C34,9.79750141 33.7041793,10.9620053 33.1109036,11.9690981 C32.518445,12.9753446 31.6947233,13.7573225 30.6389213,14.3133392 C29.5839365,14.8702023 28.3426337,15.1477875 26.9166472,15.1477875 L24.1668223,15.1477875 L24.1668223,22.8 L20,22.8 Z" id="Fill-4" fill="#FF5C47"></path>
                <polygon id="Fill-6" fill="#FF5C47" points="40 22.8 40 1.8 53 1.8 53 5.48223583 44.2466497 5.48223583 44.2466497 10.1994922 51.9886906 10.1994922 51.9886906 13.8817281 44.2466497 13.8817281 44.2466497 19.1177642 53 19.1177642 53 22.8"></polygon>
                <path d="M60,22.8 L60,1.8 L65.1045599,1.8 L70.6166953,18.0531232 C70.5592057,17.3439268 70.4905614,16.5238656 70.4133366,15.5937858 C70.3352537,14.663706 70.2717578,13.7336262 70.2228487,12.8035464 C70.1739397,11.8734666 70.1499142,11.0821794 70.1499142,10.4296849 L70.1499142,1.8 L74,1.8 L74,22.8 L68.8962981,22.8 L63.4425104,6.54603047 C63.5,7.16044169 63.5583476,7.88910293 63.6166953,8.73286048 C63.6750429,9.57661804 63.7291003,10.4296849 63.7771513,11.2929072 C63.8252023,12.1561296 63.8500858,12.9237205 63.8500858,13.5948336 L63.8500858,22.8 L60,22.8 Z" id="Fill-8" fill="#FF5C47"></path>
                <polygon id="Fill-10" fill="#FF5C47" points="0 54.8 0 33.8 13 33.8 13 37.4822358 4.24664967 37.4822358 4.24664967 42.1994922 11.9886906 42.1994922 11.9886906 45.8825744 4.24664967 45.8825744 4.24664967 51.1177642 13 51.1177642 13 54.8"></polygon>
                <path d="M24.2946697,50.7726375 L26.7852244,50.7726375 C27.6628565,50.7726375 28.3695103,50.5238364 28.9043436,50.0245416 C29.4374925,49.5260931 29.7053303,48.8643159 29.7053303,48.0400564 L29.7053303,40.5311707 C29.7053303,39.7263752 29.4374925,39.0747532 28.9043436,38.5754584 C28.3695103,38.0770099 27.6628565,37.8273625 26.7852244,37.8273625 L24.2946697,37.8273625 L24.2946697,50.7726375 Z M20,54.8 L20,33.8 L26.7852244,33.8 C28.2355914,33.8 29.5006618,34.0784203 30.5787511,34.6352609 C31.6568403,35.1912553 32.4965708,35.9723554 33.0979425,36.9794076 C33.6993142,37.9864598 34,39.1703808 34,40.5311707 L34,48.0400564 C34,49.3822285 33.6993142,50.5619182 33.0979425,51.5782793 C32.4965708,52.5946403 31.6568403,53.3858956 30.5787511,53.9511989 C29.5006618,54.5173484 28.2355914,54.8 26.7852244,54.8 L20,54.8 Z" id="Fill-12" fill="#FF5C47"></path>
                <path d="M47,54.8 C44.8411375,54.8 43.1353273,54.2322971 41.8808532,53.097726 C40.6272371,51.9623201 40,50.4111553 40,48.4433967 L40,33.8 L44.3743565,33.8 L44.3743565,48.4150115 C44.3743565,49.2857677 44.6034567,49.9519838 45.0599412,50.4153296 C45.5164256,50.8795102 46.1633979,51.1107657 47,51.1107657 C47.8168669,51.1107657 48.4578328,50.8795102 48.9246139,50.4153296 C49.3913949,49.9519838 49.6256435,49.2857677 49.6256435,48.4150115 L49.6256435,33.8 L54,33.8 L54,48.4433967 C54,50.3919536 53.373621,51.9381092 52.1191468,53.0826986 C50.8646727,54.2272879 49.1588625,54.8 47,54.8" id="Fill-14" fill="#FF5C47"></path>
                <path d="M67,54.8 C65.6040511,54.8 64.3802749,54.5429984 63.3278273,54.0298188 C62.2753798,53.5166392 61.4584037,52.7975288 60.875211,51.8741351 C60.2920183,50.9499176 60,49.8724876 60,48.639374 L60,39.9598023 C60,38.7102142 60.2920183,37.6270181 60.875211,36.7118616 C61.4584037,35.7983526 62.2753798,35.0833608 63.3278273,34.5701812 C64.3802749,34.0570016 65.6040511,33.8 67,33.8 C68.4153605,33.8 69.6442006,34.0570016 70.6865204,34.5701812 C71.7296841,35.0833608 72.5415963,35.7983526 73.125633,36.7118616 C73.7079817,37.6270181 74,38.7102142 74,39.9598023 L69.6965276,39.9598023 C69.6965276,39.1385502 69.4627442,38.514168 68.9934893,38.0841845 C68.5259224,37.6550247 67.8617073,37.4400329 67,37.4400329 C66.1391367,37.4400329 65.4740776,37.6550247 65.0065107,38.0841845 C64.5372558,38.514168 64.3034724,39.1385502 64.3034724,39.9598023 L64.3034724,48.639374 C64.3034724,49.4425041 64.5372558,50.0635914 65.0065107,50.5018122 C65.4740776,50.9408567 66.1391367,51.1599671 67,51.1599671 C67.8617073,51.1599671 68.5259224,50.9408567 68.9934893,50.5018122 C69.4627442,50.0635914 69.6965276,49.4425041 69.6965276,48.639374 L74,48.639374 C74,49.8724876 73.7079817,50.9499176 73.125633,51.8741351 C72.5415963,52.7975288 71.7296841,53.5166392 70.6865204,54.0298188 C69.6442006,54.5429984 68.4153605,54.8 67,54.8" id="Fill-16" fill="#FF5C47"></path>
                <path d="M85.1963092,46.6014104 L88.7745921,46.6014104 L87.756138,41.5390691 C87.6200588,40.809591 87.4797005,40.0860367 87.334207,39.3667137 C87.1887136,38.6473907 87.0774539,38.0863188 86.9995721,37.6834979 C86.9225461,38.0863188 86.8198449,38.6431594 86.6948917,39.3523272 C86.5682268,40.0614951 86.4270126,40.7808181 86.2729607,41.5094499 L85.1963092,46.6014104 Z M79,54.8 L84.2078096,33.8 L89.7348489,33.8 L95,54.8 L90.5496122,54.8 L89.5303022,50.0533145 L84.4688419,50.0533145 L83.4512436,54.8 L79,54.8 Z" id="Fill-18" fill="#FF5C47"></path>
                <polygon id="Fill-20" fill="#FF5C47" points="104.336049 54.8 104.336049 37.8266785 99 37.8266785 99 33.8 114 33.8 114 37.8266785 108.663951 37.8266785 108.663951 54.8"></polygon>
                <polygon id="Fill-22" fill="#FF5C47" points="120 54.8 120 51.060216 124.284367 51.060216 124.284367 37.5389377 120 37.5389377 120 33.8 133 33.8 133 37.5389377 128.715633 37.5389377 128.715633 51.060216 133 51.060216 133 54.8"></polygon>
                <path d="M147.000429,51.1599671 C147.875697,51.1599671 148.53129,50.9408567 148.968924,50.5018122 C149.406558,50.0635914 149.625375,49.4425041 149.625375,48.639374 L149.625375,39.9598023 C149.625375,39.1385502 149.411707,38.5133443 148.983512,38.0841845 C148.555317,37.654201 147.894576,37.4400329 147.000429,37.4400329 C146.105424,37.4400329 145.444683,37.654201 145.016488,38.0841845 C144.588293,38.5133443 144.374625,39.1385502 144.374625,39.9598023 L144.374625,48.639374 C144.374625,49.4425041 144.593442,50.0635914 145.031076,50.5018122 C145.46871,50.9408567 146.124303,51.1599671 147.000429,51.1599671 M147.000429,54.8 C145.580264,54.8 144.345449,54.5429984 143.295985,54.0298188 C142.245663,53.5166392 141.433895,52.7975288 140.86068,51.8741351 C140.286607,50.9499176 140,49.8724876 140,48.639374 L140,39.9598023 C140,38.7275124 140.286607,37.6500824 140.86068,36.7266886 C141.433895,35.8016474 142.245663,35.0833608 143.295985,34.5701812 C144.345449,34.0570016 145.580264,33.8 147.000429,33.8 C148.439473,33.8 149.678578,34.0570016 150.719461,34.5701812 C151.759485,35.0833608 152.566105,35.8016474 153.140178,36.7266886 C153.713393,37.6500824 154,38.7275124 154,39.9598023 L154,48.639374 C154,49.8724876 153.713393,50.9499176 153.140178,51.8741351 C152.566105,52.7975288 151.759485,53.5166392 150.719461,54.0298188 C149.678578,54.5429984 148.439473,54.8 147.000429,54.8" id="Fill-24" fill="#FF5C47"></path>
                <path d="M160,54.8 L160,33.8 L165.104015,33.8 L170.617346,50.0539695 C170.558995,49.3447731 170.491204,48.5238656 170.413117,47.5937858 C170.335029,46.663706 170.271529,45.7336262 170.223475,44.8027001 C170.174563,43.8734666 170.150536,43.0821794 170.150536,42.4305312 L170.150536,33.8 L174,33.8 L174,54.8 L168.895985,54.8 L163.441863,38.5468768 C163.500215,39.161288 163.557708,39.8891029 163.616917,40.7328605 C163.67441,41.576618 163.728471,42.4305312 163.776525,43.2929072 C163.825437,44.1561296 163.849464,44.9237205 163.849464,45.5948336 L163.849464,54.8 L160,54.8 Z" id="Fill-26" fill="#FF5C47"></path>
                <path d="M185.195978,46.6014104 L188.774925,46.6014104 L187.756525,41.5390691 C187.620454,40.809591 187.480103,40.0860367 187.334617,39.3667137 C187.189131,38.6473907 187.077022,38.0863188 187,37.6834979 C186.922978,38.0863188 186.820282,38.6431594 186.69448,39.3523272 C186.568678,40.0614951 186.427471,40.7808181 186.272572,41.5094499 L185.195978,46.6014104 Z M179,54.8 L184.207531,33.8 L189.734275,33.8 L195,54.8 L190.548994,54.8 L189.530595,50.0533145 L184.468549,50.0533145 L183.451006,54.8 L179,54.8 Z" id="Fill-28" fill="#FF5C47"></path>
                <polygon id="Fill-30" fill="#FF5C47" points="201 54.8 201 33.8 205.382322 33.8 205.382322 50.7724752 214 50.7724752 214 54.8"></polygon>
                <path d="M4.16682232,74.264598 L6.91664721,74.264598 C7.80574364,74.264598 8.51424235,74.0107193 9.04214336,73.5029619 C9.56922718,72.9943583 9.83399486,72.3181946 9.83399486,71.4744711 C9.83399486,70.6307475 9.56922718,69.9545839 9.04214336,69.4468265 C8.51424235,68.9382228 7.80574364,68.6834979 6.91664721,68.6834979 L4.16682232,68.6834979 L4.16682232,74.264598 Z M0,85.8 L0,64.8 L6.91664721,64.8 C8.34263367,64.8 9.58802241,65.0792666 10.6528134,65.6352609 C11.7176045,66.1912553 12.5421434,66.9681241 13.1256129,67.9650212 C13.7090824,68.9619182 14,70.132299 14,71.4744711 C14,72.7980254 13.7041793,73.9633286 13.1109036,74.9695346 C12.518445,75.9757405 11.6947233,76.7576869 10.6389213,77.3145275 C9.58393649,77.8705219 8.34263367,78.1480959 6.91664721,78.1480959 L4.16682232,78.1480959 L4.16682232,85.8 L0,85.8 Z" id="Fill-32" fill="#FF5C47"></path>
                <path d="M24.1713344,74.1207334 L26.5799012,74.1207334 C27.5131796,74.1207334 28.2364086,73.8812412 28.7495881,73.4014104 C29.2627677,72.922426 29.5189456,72.2513399 29.5189456,71.3881523 C29.5189456,70.4868829 29.2627677,69.787024 28.7495881,69.2877292 C28.2364086,68.7892807 27.5131796,68.5396333 26.5799012,68.5396333 L24.1713344,68.5396333 L24.1713344,74.1207334 Z M20,85.8 L20,64.8 L26.5799012,64.8 C28.0354201,64.8 29.2957166,65.0598025 30.3599671,65.5768688 C31.4233937,66.0956276 32.2495881,66.8335684 32.8377265,67.7915374 C33.4250412,68.7511989 33.7199341,69.8826516 33.7199341,71.1867419 C33.7199341,72.5492243 33.3970346,73.7661495 32.7537068,74.8400564 C32.1095552,75.9139633 31.2364086,76.6908322 30.1350906,77.1706629 L34,85.8 L29.4357496,85.8 L26.1317957,77.8603667 L24.1713344,77.8603667 L24.1713344,85.8 L20,85.8 Z" id="Fill-34" fill="#FF5C47"></path>
                <path d="M45.1959777,77.6014104 L48.7749251,77.6014104 L47.7565255,72.5390691 C47.6204536,71.809591 47.4801027,71.0860367 47.334617,70.3667137 C47.1891314,69.6473907 47.0770218,69.0863188 47,68.6834979 C46.9229782,69.0863188 46.8202824,69.6431594 46.6944801,70.3523272 C46.5686778,71.0614951 46.4274711,71.7808181 46.2725717,72.5094499 L45.1959777,77.6014104 Z M39,85.8 L44.207531,64.8 L49.7342747,64.8 L55,85.8 L50.5489944,85.8 L49.5305948,81.0533145 L44.4685494,81.0533145 L43.4510056,85.8 L39,85.8 Z" id="Fill-36" fill="#FF5C47"></path>
                <path d="M67,85.8 C65.6040511,85.8 64.3802749,85.5429984 63.3278273,85.0298188 C62.2753798,84.5166392 61.4584037,83.7975288 60.875211,82.8741351 C60.2920183,81.9499176 60,80.8724876 60,79.639374 L60,70.9598023 C60,69.7102142 60.2920183,68.6270181 60.875211,67.7118616 C61.4584037,66.7983526 62.2753798,66.0833608 63.3278273,65.5701812 C64.3802749,65.0570016 65.6040511,64.8 67,64.8 C68.4153605,64.8 69.6442006,65.0570016 70.6865204,65.5701812 C71.7296841,66.0833608 72.5415963,66.7983526 73.125633,67.7118616 C73.7079817,68.6270181 74,69.7102142 74,70.9598023 L69.6965276,70.9598023 C69.6965276,70.1385502 69.4627442,69.514168 68.9934893,69.0841845 C68.5259224,68.6550247 67.8617073,68.4400329 67,68.4400329 C66.1391367,68.4400329 65.4740776,68.6550247 65.0065107,69.0841845 C64.5372558,69.514168 64.3034724,70.1385502 64.3034724,70.9598023 L64.3034724,79.639374 C64.3034724,80.4425041 64.5372558,81.0635914 65.0065107,81.5018122 C65.4740776,81.9408567 66.1391367,82.1599671 67,82.1599671 C67.8617073,82.1599671 68.5259224,81.9408567 68.9934893,81.5018122 C69.4627442,81.0635914 69.6965276,80.4425041 69.6965276,79.639374 L74,79.639374 C74,80.8724876 73.7079817,81.9499176 73.125633,82.8741351 C72.5415963,83.7975288 71.7296841,84.5166392 70.6865204,85.0298188 C69.6442006,85.5429984 68.4153605,85.8 67,85.8" id="Fill-38" fill="#FF5C47"></path>
                <polygon id="Fill-40" fill="#FF5C47" points="84.3360489 85.8 84.3360489 68.8266785 79 68.8266785 79 64.8 94 64.8 94 68.8266785 88.6639511 68.8266785 88.6639511 85.8"></polygon>
                <polygon id="Fill-42" fill="#FF5C47" points="100 85.8 100 82.060216 104.284367 82.060216 104.284367 68.5389377 100 68.5389377 100 64.8 113 64.8 113 68.5389377 108.715633 68.5389377 108.715633 82.060216 113 82.060216 113 85.8"></polygon>
                <path d="M127,85.8 C125.604051,85.8 124.379431,85.5429984 123.326983,85.0298188 C122.27538,84.5166392 121.458404,83.7975288 120.874367,82.8741351 C120.291174,81.9499176 120,80.8724876 120,79.639374 L120,70.9598023 C120,69.7102142 120.291174,68.6270181 120.874367,67.7118616 C121.458404,66.7983526 122.27538,66.0833608 123.326983,65.5701812 C124.379431,65.0570016 125.604051,64.8 127,64.8 C128.415361,64.8 129.644201,65.0570016 130.68652,65.5701812 C131.72884,66.0833608 132.540752,66.7983526 133.124789,67.7118616 C133.707982,68.6270181 134,69.7102142 134,70.9598023 L129.696528,70.9598023 C129.696528,70.1385502 129.4619,69.514168 128.993489,69.0841845 C128.525078,68.6550247 127.860863,68.4400329 127,68.4400329 C126.139137,68.4400329 125.474078,68.6550247 125.006511,69.0841845 C124.537256,69.514168 124.303472,70.1385502 124.303472,70.9598023 L124.303472,79.639374 C124.303472,80.4425041 124.537256,81.0635914 125.006511,81.5018122 C125.474078,81.9408567 126.139137,82.1599671 127,82.1599671 C127.860863,82.1599671 128.525078,81.9408567 128.993489,81.5018122 C129.4619,81.0635914 129.696528,80.4425041 129.696528,79.639374 L134,79.639374 C134,80.8724876 133.707982,81.9499176 133.124789,82.8741351 C132.540752,83.7975288 131.72884,84.5166392 130.68652,85.0298188 C129.644201,85.5429984 128.415361,85.8 127,85.8" id="Fill-44" fill="#FF5C47"></path>
                <polygon id="Fill-46" fill="#FF5C47" points="140 85.8 140 64.8 153 64.8 153 68.4822358 144.24665 68.4822358 144.24665 73.1994922 151.988691 73.1994922 151.988691 76.8825744 144.24665 76.8825744 144.24665 82.1177642 153 82.1177642 153 85.8"></polygon>
                <path d="M166,85.8 C164.579651,85.8 163.34407,85.5570016 162.292442,85.0718287 C161.240814,84.5866557 160.429302,83.9054366 159.857907,83.0281713 C159.285698,82.1509061 159,81.115486 159,79.9194399 L163.150349,79.9194399 C163.150349,80.6105437 163.413256,81.1566722 163.93907,81.5586491 C164.46407,81.9598023 165.178721,82.1599671 166.083023,82.1599671 C166.949884,82.1599671 167.627907,81.9639209 168.117093,81.5718287 C168.604651,81.1805601 168.849651,80.6385502 168.849651,79.9482702 C168.849651,79.3510708 168.664884,78.8378913 168.296163,78.4079077 C167.927442,77.9787479 167.410581,77.6896211 166.747209,77.5405272 L164.699302,77.0644152 C162.984302,76.6533773 161.651047,75.8930807 160.701163,74.7818781 C159.751279,73.6714992 159.276744,72.3140033 159.276744,70.7085667 C159.276744,69.514168 159.548605,68.4729819 160.09314,67.5866557 C160.63686,66.7003295 161.40686,66.0133443 162.40314,65.5281713 C163.399419,65.0429984 164.579651,64.8 165.944651,64.8 C168.010465,64.8 169.647326,65.3181219 170.856047,66.3543657 C172.06314,67.3897858 172.667907,68.7859967 172.667907,70.5405272 L168.518372,70.5405272 C168.518372,69.8873147 168.291279,69.3741351 167.840349,68.999341 C167.387791,68.6270181 166.737442,68.4400329 165.889302,68.4400329 C165.096512,68.4400329 164.487674,68.6220758 164.063605,68.9861614 C163.638721,69.3502471 163.427093,69.868369 163.427093,70.5405272 C163.427093,71.1377265 163.597209,71.6459638 163.93907,72.0660626 C164.280116,72.4861614 164.763605,72.7711697 165.391163,72.9202636 L167.548953,73.4243822 C169.338837,73.8354201 170.69407,74.576771 171.616279,75.6500824 C172.538488,76.7233937 173,78.091598 173,79.7522241 C173,80.9466227 172.709419,82.0018122 172.128256,82.916145 C171.547093,83.8304778 170.735581,84.5405272 169.693721,85.0438221 C168.65186,85.5479407 167.420349,85.8 166,85.8" id="Fill-48" fill="#FF5C47"></path>
            </g>
        </g>
    </g>
</svg>